<svg width="512" height="512" viewBox="0 0 512 512" fill="none" xmlns="http://www.w3.org/2000/svg">
  <rect width="512" height="512" rx="86" fill="#3b82f6"/>
  <path d="M256 128C206.059 128 165.333 168.726 165.333 218.667C165.333 268.608 256 384 256 384C256 384 346.667 268.608 346.667 218.667C346.667 168.726 305.941 128 256 128ZM256 245.333C241.272 245.333 229.333 233.395 229.333 218.667C229.333 203.939 241.272 192 256 192C270.728 192 282.667 203.939 282.667 218.667C282.667 233.395 270.728 245.333 256 245.333Z" fill="white"/>
  <path d="M128 309.333H384M128 309.333L112 341.333H400L384 309.333M128 309.333V293.333M384 309.333V293.333M112 341.333V368C112 377.941 120.059 386 130 386H382C391.941 386 400 377.941 400 368V341.333M112 341.333H400" stroke="white" stroke-width="10.6667" stroke-linecap="round" stroke-linejoin="round"/>
</svg>
