<svg width="192" height="192" viewBox="0 0 192 192" fill="none" xmlns="http://www.w3.org/2000/svg">
  <rect width="192" height="192" rx="32" fill="#3b82f6"/>
  <path d="M96 48C77.2223 48 62 63.2223 62 82C62 100.778 96 144 96 144C96 144 130 100.778 130 82C130 63.2223 114.778 48 96 48ZM96 92C90.4772 92 86 87.5228 86 82C86 76.4772 90.4772 72 96 72C101.523 72 106 76.4772 106 82C106 87.5228 101.523 92 96 92Z" fill="white"/>
  <path d="M48 116H144M48 116L42 128H150L144 116M48 116V110M144 116V110M42 128V138C42 141.314 44.6863 144 48 144H144C147.314 144 150 141.314 150 138V128M42 128H150" stroke="white" stroke-width="4" stroke-linecap="round" stroke-linejoin="round"/>
</svg>
